<?xml version="1.0" encoding="iso-8859-1"?>
<!-- Generator: Adobe Illustrator 21.1.0, SVG Export Plug-In . SVG Version: 6.00 Build 0)  -->
<svg version="1.1" id="Layer_1" xmlns="http://www.w3.org/2000/svg" xmlns:xlink="http://www.w3.org/1999/xlink" x="0px" y="0px"
	 viewBox="0 0 60.963 60.842" style="enable-background:new 0 0 60.963 60.842;" xml:space="preserve">
<path style="fill:#231F20;" d="M59.595,52.861L37.094,30.359L59.473,7.98c1.825-1.826,1.825-4.786,0-6.611
	c-1.826-1.825-4.785-1.825-6.611,0L30.483,23.748L8.105,1.369c-1.826-1.825-4.785-1.825-6.611,0c-1.826,1.826-1.826,4.786,0,6.611
	l22.378,22.379L1.369,52.861c-1.826,1.826-1.826,4.785,0,6.611c0.913,0.913,2.109,1.369,3.306,1.369s2.393-0.456,3.306-1.369
	l22.502-22.502l22.501,22.502c0.913,0.913,2.109,1.369,3.306,1.369s2.393-0.456,3.306-1.369
	C61.42,57.647,61.42,54.687,59.595,52.861z"/>
</svg>
<svg xmlns="http://www.w3.org/2000/svg" viewBox="0 0 61 60.8"><path id="selectedPost__path" d="M59.6 52.9L37.1 30.4 59.5 8c1.8-1.8 1.8-4.8 0-6.6 -1.8-1.8-4.8-1.8-6.6 0L30.5 23.7 8.1 1.4c-1.8-1.8-4.8-1.8-6.6 0 -1.8 1.8-1.8 4.8 0 6.6l22.4 22.4L1.4 52.9c-1.8 1.8-1.8 4.8 0 6.6 0.9 0.9 2.1 1.4 3.3 1.4s2.4-0.5 3.3-1.4l22.5-22.5 22.5 22.5c0.9 0.9 2.1 1.4 3.3 1.4s2.4-0.5 3.3-1.4C61.4 57.6 61.4 54.7 59.6 52.9z" fill="#231F20"/></svg>
